<svg width="125" height="25" viewBox="0 0 125 25" fill="none" xmlns="http://www.w3.org/2000/svg">
<path d="M14.2188 16.4531H18.8906C18.7969 17.9844 18.375 19.3438 17.625 20.5312C16.8854 21.7188 15.849 22.6458 14.5156 23.3125C13.1927 23.9792 11.599 24.3125 9.73438 24.3125C8.27604 24.3125 6.96875 24.0625 5.8125 23.5625C4.65625 23.0521 3.66667 22.3229 2.84375 21.375C2.03125 20.4271 1.41146 19.2812 0.984375 17.9375C0.557292 16.5938 0.34375 15.0885 0.34375 13.4219V11.8438C0.34375 10.1771 0.5625 8.67188 1 7.32812C1.44792 5.97396 2.08333 4.82292 2.90625 3.875C3.73958 2.92708 4.73438 2.19792 5.89062 1.6875C7.04688 1.17708 8.33854 0.921875 9.76562 0.921875C11.6615 0.921875 13.2604 1.26562 14.5625 1.95312C15.875 2.64062 16.8906 3.58854 17.6094 4.79688C18.3385 6.00521 18.776 7.38021 18.9219 8.92188H14.2344C14.1823 8.00521 14 7.22917 13.6875 6.59375C13.375 5.94792 12.901 5.46354 12.2656 5.14062C11.6406 4.80729 10.8073 4.64062 9.76562 4.64062C8.98438 4.64062 8.30208 4.78646 7.71875 5.07812C7.13542 5.36979 6.64583 5.8125 6.25 6.40625C5.85417 7 5.55729 7.75 5.35938 8.65625C5.17188 9.55208 5.07812 10.6042 5.07812 11.8125V13.4219C5.07812 14.599 5.16667 15.6354 5.34375 16.5312C5.52083 17.4167 5.79167 18.1667 6.15625 18.7812C6.53125 19.3854 7.01042 19.8438 7.59375 20.1562C8.1875 20.4583 8.90104 20.6094 9.73438 20.6094C10.7135 20.6094 11.5208 20.4531 12.1562 20.1406C12.7917 19.8281 13.276 19.3646 13.6094 18.75C13.9531 18.1354 14.1562 17.3698 14.2188 16.4531ZM36.5938 20.3438V24H25.1406V20.3438H36.5938ZM26.6562 1.25V24H21.9688V1.25H26.6562ZM56.9375 12.0938V13.1719C56.9375 14.901 56.7031 16.4531 56.2344 17.8281C55.7656 19.2031 55.1042 20.375 54.25 21.3438C53.3958 22.3021 52.375 23.0365 51.1875 23.5469C50.0104 24.0573 48.7031 24.3125 47.2656 24.3125C45.8385 24.3125 44.5312 24.0573 43.3438 23.5469C42.1667 23.0365 41.1458 22.3021 40.2812 21.3438C39.4167 20.375 38.7448 19.2031 38.2656 17.8281C37.7969 16.4531 37.5625 14.901 37.5625 13.1719V12.0938C37.5625 10.3542 37.7969 8.80208 38.2656 7.4375C38.7344 6.0625 39.3958 4.89062 40.25 3.92188C41.1146 2.95312 42.1354 2.21354 43.3125 1.70312C44.5 1.19271 45.8073 0.9375 47.2344 0.9375C48.6719 0.9375 49.9792 1.19271 51.1562 1.70312C52.3438 2.21354 53.3646 2.95312 54.2188 3.92188C55.0833 4.89062 55.75 6.0625 56.2188 7.4375C56.6979 8.80208 56.9375 10.3542 56.9375 12.0938ZM52.2031 13.1719V12.0625C52.2031 10.8542 52.0938 9.79167 51.875 8.875C51.6562 7.95833 51.3333 7.1875 50.9062 6.5625C50.4792 5.9375 49.9583 5.46875 49.3438 5.15625C48.7292 4.83333 48.026 4.67188 47.2344 4.67188C46.4427 4.67188 45.7396 4.83333 45.125 5.15625C44.5208 5.46875 44.0052 5.9375 43.5781 6.5625C43.1615 7.1875 42.8438 7.95833 42.625 8.875C42.4062 9.79167 42.2969 10.8542 42.2969 12.0625V13.1719C42.2969 14.3698 42.4062 15.4323 42.625 16.3594C42.8438 17.276 43.1667 18.0521 43.5938 18.6875C44.0208 19.3125 44.5417 19.7865 45.1562 20.1094C45.7708 20.4323 46.474 20.5938 47.2656 20.5938C48.0573 20.5938 48.7604 20.4323 49.375 20.1094C49.9896 19.7865 50.5052 19.3125 50.9219 18.6875C51.3385 18.0521 51.6562 17.276 51.875 16.3594C52.0938 15.4323 52.2031 14.3698 52.2031 13.1719ZM72.1562 18.0469C72.1562 17.6406 72.0938 17.276 71.9688 16.9531C71.8542 16.6198 71.6354 16.3177 71.3125 16.0469C70.9896 15.7656 70.5365 15.4896 69.9531 15.2188C69.3698 14.9479 68.6146 14.6667 67.6875 14.375C66.6562 14.0417 65.6771 13.6667 64.75 13.25C63.8333 12.8333 63.0208 12.349 62.3125 11.7969C61.6146 11.2344 61.0625 10.5833 60.6562 9.84375C60.2604 9.10417 60.0625 8.24479 60.0625 7.26562C60.0625 6.31771 60.2708 5.45833 60.6875 4.6875C61.1042 3.90625 61.6875 3.23958 62.4375 2.6875C63.1875 2.125 64.0729 1.69271 65.0938 1.39062C66.125 1.08854 67.2552 0.9375 68.4844 0.9375C70.1615 0.9375 71.625 1.23958 72.875 1.84375C74.125 2.44792 75.0938 3.27604 75.7812 4.32812C76.4792 5.38021 76.8281 6.58333 76.8281 7.9375H72.1719C72.1719 7.27083 72.0312 6.6875 71.75 6.1875C71.4792 5.67708 71.0625 5.27604 70.5 4.98438C69.9479 4.69271 69.25 4.54688 68.4062 4.54688C67.5938 4.54688 66.9167 4.67188 66.375 4.92188C65.8333 5.16146 65.4271 5.48958 65.1562 5.90625C64.8854 6.3125 64.75 6.77083 64.75 7.28125C64.75 7.66667 64.8438 8.01562 65.0312 8.32812C65.2292 8.64062 65.5208 8.93229 65.9062 9.20312C66.2917 9.47396 66.7656 9.72917 67.3281 9.96875C67.8906 10.2083 68.5417 10.4427 69.2812 10.6719C70.5208 11.0469 71.6094 11.4688 72.5469 11.9375C73.4948 12.4062 74.2865 12.9323 74.9219 13.5156C75.5573 14.099 76.0365 14.7604 76.3594 15.5C76.6823 16.2396 76.8438 17.0781 76.8438 18.0156C76.8438 19.0052 76.651 19.8906 76.2656 20.6719C75.8802 21.4531 75.3229 22.1146 74.5938 22.6562C73.8646 23.1979 72.9948 23.6094 71.9844 23.8906C70.974 24.1719 69.8438 24.3125 68.5938 24.3125C67.4688 24.3125 66.3594 24.1667 65.2656 23.875C64.1719 23.5729 63.1771 23.1198 62.2812 22.5156C61.3958 21.9115 60.6875 21.1406 60.1562 20.2031C59.625 19.2656 59.3594 18.1562 59.3594 16.875H64.0625C64.0625 17.5833 64.1719 18.1823 64.3906 18.6719C64.6094 19.1615 64.9167 19.5573 65.3125 19.8594C65.7188 20.1615 66.1979 20.3802 66.75 20.5156C67.3125 20.651 67.9271 20.7188 68.5938 20.7188C69.4062 20.7188 70.0729 20.6042 70.5938 20.375C71.125 20.1458 71.5156 19.8281 71.7656 19.4219C72.026 19.0156 72.1562 18.5573 72.1562 18.0469ZM85.0156 1.25V24H80.3438V1.25H85.0156ZM94.0938 1.25V24H89.4062V1.25H94.0938ZM103.156 10.9688V14.625H92.8125V10.9688H103.156ZM104.25 1.25V4.92188H92.8125V1.25H104.25ZM110.094 1.25L114.844 11.625L119.594 1.25H124.703L117.219 15.7188V24H112.469V15.7188L104.969 1.25H110.094Z" fill="black"/>
</svg>
