<svg width="126" height="38" viewBox="0 0 126 38" fill="none" xmlns="http://www.w3.org/2000/svg">
<path d="M15.2188 22.4531H19.8906C19.7969 23.9844 19.375 25.3438 18.625 26.5312C17.8854 27.7188 16.849 28.6458 15.5156 29.3125C14.1927 29.9792 12.599 30.3125 10.7344 30.3125C9.27604 30.3125 7.96875 30.0625 6.8125 29.5625C5.65625 29.0521 4.66667 28.3229 3.84375 27.375C3.03125 26.4271 2.41146 25.2812 1.98438 23.9375C1.55729 22.5938 1.34375 21.0885 1.34375 19.4219V17.8438C1.34375 16.1771 1.5625 14.6719 2 13.3281C2.44792 11.974 3.08333 10.8229 3.90625 9.875C4.73958 8.92708 5.73438 8.19792 6.89062 7.6875C8.04688 7.17708 9.33854 6.92188 10.7656 6.92188C12.6615 6.92188 14.2604 7.26562 15.5625 7.95312C16.875 8.64062 17.8906 9.58854 18.6094 10.7969C19.3385 12.0052 19.776 13.3802 19.9219 14.9219H15.2344C15.1823 14.0052 15 13.2292 14.6875 12.5938C14.375 11.9479 13.901 11.4635 13.2656 11.1406C12.6406 10.8073 11.8073 10.6406 10.7656 10.6406C9.98438 10.6406 9.30208 10.7865 8.71875 11.0781C8.13542 11.3698 7.64583 11.8125 7.25 12.4062C6.85417 13 6.55729 13.75 6.35938 14.6562C6.17188 15.5521 6.07812 16.6042 6.07812 17.8125V19.4219C6.07812 20.599 6.16667 21.6354 6.34375 22.5312C6.52083 23.4167 6.79167 24.1667 7.15625 24.7812C7.53125 25.3854 8.01042 25.8438 8.59375 26.1562C9.1875 26.4583 9.90104 26.6094 10.7344 26.6094C11.7135 26.6094 12.5208 26.4531 13.1562 26.1406C13.7917 25.8281 14.276 25.3646 14.6094 24.75C14.9531 24.1354 15.1562 23.3698 15.2188 22.4531ZM37.5938 26.3438V30H26.1406V26.3438H37.5938ZM27.6562 7.25V30H22.9688V7.25H27.6562ZM57.9375 18.0938V19.1719C57.9375 20.901 57.7031 22.4531 57.2344 23.8281C56.7656 25.2031 56.1042 26.375 55.25 27.3438C54.3958 28.3021 53.375 29.0365 52.1875 29.5469C51.0104 30.0573 49.7031 30.3125 48.2656 30.3125C46.8385 30.3125 45.5312 30.0573 44.3438 29.5469C43.1667 29.0365 42.1458 28.3021 41.2812 27.3438C40.4167 26.375 39.7448 25.2031 39.2656 23.8281C38.7969 22.4531 38.5625 20.901 38.5625 19.1719V18.0938C38.5625 16.3542 38.7969 14.8021 39.2656 13.4375C39.7344 12.0625 40.3958 10.8906 41.25 9.92188C42.1146 8.95312 43.1354 8.21354 44.3125 7.70312C45.5 7.19271 46.8073 6.9375 48.2344 6.9375C49.6719 6.9375 50.9792 7.19271 52.1562 7.70312C53.3438 8.21354 54.3646 8.95312 55.2188 9.92188C56.0833 10.8906 56.75 12.0625 57.2188 13.4375C57.6979 14.8021 57.9375 16.3542 57.9375 18.0938ZM53.2031 19.1719V18.0625C53.2031 16.8542 53.0938 15.7917 52.875 14.875C52.6562 13.9583 52.3333 13.1875 51.9062 12.5625C51.4792 11.9375 50.9583 11.4688 50.3438 11.1562C49.7292 10.8333 49.026 10.6719 48.2344 10.6719C47.4427 10.6719 46.7396 10.8333 46.125 11.1562C45.5208 11.4688 45.0052 11.9375 44.5781 12.5625C44.1615 13.1875 43.8438 13.9583 43.625 14.875C43.4062 15.7917 43.2969 16.8542 43.2969 18.0625V19.1719C43.2969 20.3698 43.4062 21.4323 43.625 22.3594C43.8438 23.276 44.1667 24.0521 44.5938 24.6875C45.0208 25.3125 45.5417 25.7865 46.1562 26.1094C46.7708 26.4323 47.474 26.5938 48.2656 26.5938C49.0573 26.5938 49.7604 26.4323 50.375 26.1094C50.9896 25.7865 51.5052 25.3125 51.9219 24.6875C52.3385 24.0521 52.6562 23.276 52.875 22.3594C53.0938 21.4323 53.2031 20.3698 53.2031 19.1719ZM73.1562 24.0469C73.1562 23.6406 73.0938 23.276 72.9688 22.9531C72.8542 22.6198 72.6354 22.3177 72.3125 22.0469C71.9896 21.7656 71.5365 21.4896 70.9531 21.2188C70.3698 20.9479 69.6146 20.6667 68.6875 20.375C67.6562 20.0417 66.6771 19.6667 65.75 19.25C64.8333 18.8333 64.0208 18.349 63.3125 17.7969C62.6146 17.2344 62.0625 16.5833 61.6562 15.8438C61.2604 15.1042 61.0625 14.2448 61.0625 13.2656C61.0625 12.3177 61.2708 11.4583 61.6875 10.6875C62.1042 9.90625 62.6875 9.23958 63.4375 8.6875C64.1875 8.125 65.0729 7.69271 66.0938 7.39062C67.125 7.08854 68.2552 6.9375 69.4844 6.9375C71.1615 6.9375 72.625 7.23958 73.875 7.84375C75.125 8.44792 76.0938 9.27604 76.7812 10.3281C77.4792 11.3802 77.8281 12.5833 77.8281 13.9375H73.1719C73.1719 13.2708 73.0312 12.6875 72.75 12.1875C72.4792 11.6771 72.0625 11.276 71.5 10.9844C70.9479 10.6927 70.25 10.5469 69.4062 10.5469C68.5938 10.5469 67.9167 10.6719 67.375 10.9219C66.8333 11.1615 66.4271 11.4896 66.1562 11.9062C65.8854 12.3125 65.75 12.7708 65.75 13.2812C65.75 13.6667 65.8438 14.0156 66.0312 14.3281C66.2292 14.6406 66.5208 14.9323 66.9062 15.2031C67.2917 15.474 67.7656 15.7292 68.3281 15.9688C68.8906 16.2083 69.5417 16.4427 70.2812 16.6719C71.5208 17.0469 72.6094 17.4688 73.5469 17.9375C74.4948 18.4062 75.2865 18.9323 75.9219 19.5156C76.5573 20.099 77.0365 20.7604 77.3594 21.5C77.6823 22.2396 77.8438 23.0781 77.8438 24.0156C77.8438 25.0052 77.651 25.8906 77.2656 26.6719C76.8802 27.4531 76.3229 28.1146 75.5938 28.6562C74.8646 29.1979 73.9948 29.6094 72.9844 29.8906C71.974 30.1719 70.8438 30.3125 69.5938 30.3125C68.4688 30.3125 67.3594 30.1667 66.2656 29.875C65.1719 29.5729 64.1771 29.1198 63.2812 28.5156C62.3958 27.9115 61.6875 27.1406 61.1562 26.2031C60.625 25.2656 60.3594 24.1562 60.3594 22.875H65.0625C65.0625 23.5833 65.1719 24.1823 65.3906 24.6719C65.6094 25.1615 65.9167 25.5573 66.3125 25.8594C66.7188 26.1615 67.1979 26.3802 67.75 26.5156C68.3125 26.651 68.9271 26.7188 69.5938 26.7188C70.4062 26.7188 71.0729 26.6042 71.5938 26.375C72.125 26.1458 72.5156 25.8281 72.7656 25.4219C73.026 25.0156 73.1562 24.5573 73.1562 24.0469ZM86.0156 7.25V30H81.3438V7.25H86.0156ZM95.0938 7.25V30H90.4062V7.25H95.0938ZM104.156 16.9688V20.625H93.8125V16.9688H104.156ZM105.25 7.25V10.9219H93.8125V7.25H105.25ZM111.094 7.25L115.844 17.625L120.594 7.25H125.703L118.219 21.7188V30H113.469V21.7188L105.969 7.25H111.094Z" fill="white"/>
</svg>
